<svg width="47" height="44" viewBox="0 0 47 44" fill="none" xmlns="http://www.w3.org/2000/svg">
<path d="M36.4738 27.9844L40.7135 4.64795H38.0407C36.8044 11.5767 35.5231 18.5095 34.2663 25.4382C33.5971 29.131 32.9075 31.3712 30.4102 33.4319C27.1498 36.121 22.6776 36.4964 19.862 34.5132L17.7402 36.6351C23.359 40.9319 34.8253 37.0799 36.4779 27.9844" fill="#151515"/>
<path d="M5.23737 0L4.79668 2.56256L0.283625 27.3966C-0.218278 30.1672 -0.050977 32.9216 0.761046 34.9904C1.42617 36.6838 3.08694 39.2831 4.42943 40.0217C3.83368 38.6506 3.78471 38.4548 3.30729 36.8838C1.91583 32.3054 2.68297 29.1594 3.60925 24.075C4.77627 17.6645 6.30239 9.02202 7.5143 2.60337H19.1805C18.6868 6.88791 15.9814 20.3658 15.0225 25.642C14.239 29.9469 14.3002 32.0688 15.9936 34.7415C16.471 35.4964 17.0627 36.1289 17.736 36.643L19.8579 34.5211C18.6378 33.6642 17.7278 32.3626 17.3565 30.6202C16.8709 28.3351 18.1277 23.5078 18.6296 20.7535C19.8824 13.8574 21.0943 6.90423 22.3429 0.0122415H5.23737V0Z" fill="#EC0127"/>
<path fill-rule="evenodd" clip-rule="evenodd" d="M12.1946 42.1968C11.4275 42.8089 10.3747 42.8701 9.48518 42.4254C8.59563 41.9847 7.90602 41.1767 7.53061 40.6707C7.51021 40.6422 7.49389 40.6177 7.47348 40.5891C5.29857 37.3737 4.16827 32.6811 4.94764 28.3802L9.25667 4.64795H11.9294L7.68975 27.9844C7.06543 31.4243 7.62446 35.0355 8.75069 37.4594C9.53007 39.1324 10.6849 40.8992 12.0355 42.0663C12.0845 42.1071 12.1375 42.152 12.1946 42.1928" fill="#EC0127"/>
<path fill-rule="evenodd" clip-rule="evenodd" d="M29.1205 27.3966C28.6104 30.2 27.8678 31.5955 26.7864 33.2889C29.2266 32.6727 31.2424 30.3999 31.7892 27.3966L35.9227 4.65186H33.25L29.1205 27.3966Z" fill="#151515"/>
<path d="M12.3782 28.8984C12.6761 25.6585 15.8793 9.15284 16.7158 4.64795H14.0431C13.1943 9.32014 9.48513 27.8579 9.5953 31.0203C9.7218 34.6438 11.3581 37.9857 14.1492 40.2219L16.2098 38.1612C13.5167 36.023 12.0354 32.6158 12.3782 28.9025" fill="#EC0127"/>
<path d="M29.3042 0C29.2267 0.432534 29.0512 1.45674 28.8146 2.87268L24.7667 25.6787C24.7259 25.9194 24.6769 26.1602 24.6157 26.3968C23.3467 31.4934 21.4778 32.8971 21.4778 32.8971C22.098 33.3133 22.6897 33.4806 23.1508 33.5418C23.6731 33.6112 24.1995 33.399 24.5219 32.9828C25.9704 31.1262 26.7009 28.5718 27.0355 26.964C28.2514 21.1615 31.3404 3.63574 31.3404 3.63574H31.3445C31.4016 3.32562 31.4547 3.01958 31.5118 2.71762L31.5199 2.61153H43.1984C42.2558 8.0835 39.2525 25.5236 38.4119 28.7758C36.7552 35.2026 30.2305 40.442 23.1182 40.4624C20.3924 40.4705 18.0298 39.6014 16.2139 38.161L14.1533 40.2216C16.3363 41.9722 19.2253 43.0494 22.6448 43.0535C31.8464 43.0453 39.8197 36.2023 41.4193 27.4007L45.9242 2.59929L46.3975 0H29.3083H29.3042Z" fill="#151515"/>
</svg>
