<svg width="388" height="403" viewBox="0 0 388 403" fill="none" xmlns="http://www.w3.org/2000/svg">
<path d="M276.307 234.269L323.768 -26.9709H293.848C280.008 50.5927 265.664 128.202 251.595 205.766C244.104 247.105 236.384 272.183 208.428 295.251C171.93 325.354 121.865 329.557 90.3466 307.356L66.5933 331.11C129.494 379.21 257.853 336.089 276.353 234.269" fill="#151515"/>
<path d="M-73.3701 -79L-78.3035 -50.3134L-128.825 227.691C-134.444 258.708 -132.571 289.541 -123.48 312.701C-116.035 331.658 -97.4432 360.755 -82.4147 369.023C-89.0839 353.675 -89.632 351.482 -94.9765 333.896C-110.553 282.644 -101.965 247.425 -91.5962 190.508C-78.5319 118.746 -61.4478 21.9971 -47.881 -49.8566H82.7164C77.1892 -1.89322 46.9038 148.986 36.1691 208.049C27.3987 256.241 28.0838 279.994 47.0408 309.914C52.3853 318.365 59.0088 325.445 66.5459 331.201L90.2992 307.448C76.6411 297.855 66.4545 283.283 62.2977 263.778C56.8619 238.198 70.9311 184.159 76.5497 153.325C90.5733 76.1272 104.14 -1.7105 118.118 -78.863H-73.3701V-79Z" fill="#EC0127"/>
<path fill-rule="evenodd" clip-rule="evenodd" d="M4.51311 393.371C-4.07462 400.223 -15.8599 400.908 -25.818 395.929C-35.7761 390.995 -43.4959 381.951 -47.6985 376.287C-47.9268 375.967 -48.1096 375.693 -48.338 375.373C-72.6851 339.378 -85.3383 286.846 -76.6135 238.7L-28.3761 -26.9709H1.54395L-45.917 234.269C-52.9059 272.777 -46.6478 313.203 -34.0403 340.337C-25.3155 359.066 -12.3883 378.845 2.73161 391.909C3.27976 392.366 3.87359 392.868 4.51311 393.325" fill="#EC0127"/>
<path fill-rule="evenodd" clip-rule="evenodd" d="M193.989 227.691C188.279 259.073 179.966 274.695 167.86 293.652C195.177 286.755 217.742 261.311 223.863 227.691L270.137 -26.9254H240.217L193.989 227.691Z" fill="#151515"/>
<path d="M6.56671 244.502C9.9013 208.232 45.7596 23.4592 55.1239 -26.9709H25.2039C15.7026 25.332 -25.82 232.853 -24.5867 268.255C-23.1706 308.818 -4.85316 346.23 26.3916 371.262L49.4597 348.194C19.3113 324.258 2.72964 286.116 6.56671 244.547" fill="#EC0127"/>
<path d="M196.047 -79C195.179 -74.158 193.215 -62.6925 190.566 -46.8417L145.252 208.46C144.795 211.155 144.247 213.85 143.562 216.5C129.355 273.553 108.434 289.267 108.434 289.267C115.377 293.926 122.001 295.799 127.163 296.484C133.01 297.261 138.902 294.886 142.511 290.226C158.727 269.442 166.904 240.847 170.649 222.849C184.262 157.893 218.841 -38.2997 218.841 -38.2997H218.887C219.526 -41.7713 220.12 -45.1973 220.76 -48.5775L220.851 -49.7652H351.586C341.034 11.4908 307.414 206.724 298.004 243.131C279.458 315.076 206.416 373.728 126.797 373.957C96.2834 374.048 69.835 364.318 49.5076 348.193L26.4395 371.262C50.878 390.858 83.2191 402.917 121.498 402.963C224.505 402.872 313.763 326.267 331.669 227.737L382.099 -49.9022L387.398 -79H196.093H196.047Z" fill="#151515"/>
</svg>
