<svg width="442" height="354" viewBox="0 0 442 354" fill="none" xmlns="http://www.w3.org/2000/svg">
<path d="M111.091 168.694L63.63 429.934L93.55 429.934C107.391 352.37 121.734 274.761 135.803 197.197C143.295 155.858 151.015 130.78 178.971 107.712C215.468 77.6089 265.533 73.4064 297.052 95.6066L320.805 71.8533C257.905 23.753 129.545 66.8743 111.045 168.694" fill="#151515"/>
<path d="M460.768 481.963L465.702 453.276L516.223 175.272C521.842 144.255 519.969 113.422 510.879 90.2625C503.433 71.3055 484.842 42.2077 469.813 33.9398C476.482 49.288 477.03 51.4806 482.375 69.0672C497.952 120.319 489.364 155.538 478.995 212.455C465.93 284.217 448.846 380.966 435.279 452.82L304.682 452.82C310.209 404.856 340.495 253.977 351.229 194.914C360 146.722 359.315 122.969 340.358 93.0489C335.013 84.5982 328.39 77.5179 320.852 71.7623L297.099 95.5155C310.757 105.108 320.944 119.68 325.101 139.185C330.536 164.765 316.467 218.804 310.849 249.638C296.825 326.836 283.258 404.674 269.28 481.826L460.768 481.826L460.768 481.963Z" fill="#EC0127"/>
<path fill-rule="evenodd" clip-rule="evenodd" d="M382.885 9.59231C391.473 2.74041 403.258 2.05523 413.216 7.0343C423.174 11.9676 430.894 21.0122 435.097 26.6764C435.325 26.9962 435.508 27.2703 435.736 27.59C460.083 63.5854 472.737 116.117 464.012 164.263L415.774 429.934L385.854 429.934L433.315 168.694C440.304 130.186 434.046 89.7596 421.439 62.6261C412.714 43.8975 399.787 24.1184 384.667 11.0541C384.119 10.5973 383.525 10.0948 382.885 9.63799" fill="#EC0127"/>
<path fill-rule="evenodd" clip-rule="evenodd" d="M193.409 175.272C199.119 143.89 207.433 128.268 219.538 109.311C192.222 116.208 169.656 141.652 163.535 175.272L117.262 429.888L147.182 429.888L193.409 175.272Z" fill="#151515"/>
<path d="M380.832 158.461C377.497 194.731 341.639 379.504 332.274 429.934L362.194 429.934C371.696 377.631 413.218 170.11 411.985 134.708C410.569 94.1449 392.251 56.7335 361.007 31.7012L337.939 54.7693C368.087 78.7052 384.669 116.848 380.832 158.416" fill="#EC0127"/>
<path d="M191.351 481.963C192.219 477.121 194.183 465.656 196.833 449.805L242.147 194.503C242.603 191.808 243.152 189.113 243.837 186.463C258.043 129.41 278.964 113.696 278.964 113.696C272.021 109.037 265.397 107.164 260.236 106.479C254.389 105.702 248.496 108.077 244.887 112.737C228.671 133.521 220.495 162.116 216.749 180.114C203.136 245.07 168.557 441.263 168.557 441.263L168.511 441.263C167.872 444.734 167.278 448.16 166.639 451.541L166.547 452.728L35.8127 452.728C46.3646 391.472 79.9847 196.239 89.3947 159.832C107.94 87.8872 180.982 29.2348 260.601 29.0064C291.115 28.9151 317.563 38.6448 337.891 54.7696L360.959 31.7015C336.52 12.1051 304.179 0.0457104 265.9 2.22073e-05C162.893 0.0913828 73.6353 76.6957 55.7289 175.226L5.2988 452.865L0 481.963L191.305 481.963L191.351 481.963Z" fill="#151515"/>
</svg>
